<svg width="458" height="464" viewBox="0 0 458 464" fill="none" xmlns="http://www.w3.org/2000/svg">
<g filter="url(#filter0_b_334_500)">
<path d="M153.632 12.576C198.081 -2.13848 245.946 -3.03299 290.914 10.0104C335.882 23.0539 375.839 49.4224 405.515 85.6377C435.191 121.853 453.191 166.214 457.142 212.868C461.092 259.522 450.807 306.277 427.643 346.967C404.479 387.657 369.525 420.368 327.391 440.787C285.257 461.206 237.923 468.373 191.633 461.342C145.342 454.311 102.271 433.413 68.1002 401.404C33.9293 369.395 10.2643 327.78 0.226966 282.047L83.9704 263.667C90.2914 292.467 105.194 318.674 126.713 338.832C148.232 358.989 175.356 372.15 204.507 376.577C233.658 381.005 263.467 376.492 290.001 363.633C316.534 350.774 338.547 330.174 353.134 304.55C367.722 278.926 374.199 249.482 371.711 220.102C369.223 190.721 357.887 162.786 339.199 139.979C320.511 117.173 295.348 100.567 267.029 92.3531C238.711 84.1391 208.568 84.7024 180.577 93.9687L153.632 12.576Z" fill="black" fill-opacity="0.3"/>
<path d="M153.632 12.576C198.081 -2.13848 245.946 -3.03299 290.914 10.0104C335.882 23.0539 375.839 49.4224 405.515 85.6377C435.191 121.853 453.191 166.214 457.142 212.868C461.092 259.522 450.807 306.277 427.643 346.967C404.479 387.657 369.525 420.368 327.391 440.787C285.257 461.206 237.923 468.373 191.633 461.342C145.342 454.311 102.271 433.413 68.1002 401.404C33.9293 369.395 10.2643 327.78 0.226966 282.047L83.9704 263.667C90.2914 292.467 105.194 318.674 126.713 338.832C148.232 358.989 175.356 372.15 204.507 376.577C233.658 381.005 263.467 376.492 290.001 363.633C316.534 350.774 338.547 330.174 353.134 304.55C367.722 278.926 374.199 249.482 371.711 220.102C369.223 190.721 357.887 162.786 339.199 139.979C320.511 117.173 295.348 100.567 267.029 92.3531C238.711 84.1391 208.568 84.7024 180.577 93.9687L153.632 12.576Z" fill="url(#paint0_linear_334_500)"/>
</g>
<defs>
<filter id="filter0_b_334_500" x="-3.77295" y="-3.15625" width="465.741" height="471.124" filterUnits="userSpaceOnUse" color-interpolation-filters="sRGB">
<feFlood flood-opacity="0" result="BackgroundImageFix"/>
<feGaussianBlur in="BackgroundImageFix" stdDeviation="2"/>
<feComposite in2="SourceAlpha" operator="in" result="effect1_backgroundBlur_334_500"/>
<feBlend mode="normal" in="SourceGraphic" in2="effect1_backgroundBlur_334_500" result="shape"/>
</filter>
<linearGradient id="paint0_linear_334_500" x1="6.47852" y1="159.927" x2="446.332" y2="304.884" gradientUnits="userSpaceOnUse">
<stop stop-opacity="0.2"/>
<stop offset="1" stop-opacity="0"/>
</linearGradient>
</defs>
</svg>
