<svg width="322" height="322" viewBox="0 0 322 322" fill="none" xmlns="http://www.w3.org/2000/svg">
<path fill-rule="evenodd" clip-rule="evenodd" d="M321.999 161C321.999 250.186 250.186 321.999 161 321.999C71.8127 321.999 0 250.186 0 161C0 71.8128 72.3919 0 161 0C250.186 0 321.999 72.3919 321.999 161Z" fill="#EEEEF6"/>
<path d="M164.478 294.2C191.026 294.2 212.546 272.68 212.546 246.132C212.546 219.585 191.026 198.064 164.478 198.064C137.931 198.064 116.41 219.585 116.41 246.132C116.41 272.68 137.931 294.2 164.478 294.2Z" fill="#3BE893"/>
<path d="M54.4406 40.5396C60.232 41.6979 66.0233 42.8561 72.3938 42.8561C101.93 42.8561 127.991 26.0612 140.732 1.73755C108.3 5.79149 78.1852 19.6907 54.4406 40.5396ZM1.16022 176.057C4.63503 211.384 19.1134 243.237 41.1205 268.14C43.4371 261.19 44.5953 253.661 44.5953 245.553C44.5953 214.859 26.6422 188.798 1.16022 176.057Z" fill="#3BE893"/>
<path fill-rule="evenodd" clip-rule="evenodd" d="M175.478 0.580078C155.787 21.4289 143.046 49.8066 143.046 81.0798C143.046 145.943 195.169 198.065 260.032 198.065C282.039 198.065 302.888 191.695 320.841 180.691C321.42 174.321 321.999 167.371 321.999 161C321.999 77.0259 257.715 8.10883 175.478 0.580078Z" fill="#3BE893"/>
</svg>
