<svg width="29" height="39" viewBox="0 0 29 39" fill="none" xmlns="http://www.w3.org/2000/svg">
<path fill-rule="evenodd" clip-rule="evenodd" d="M0.857178 26.2813C2.95361 11.9536 4.46893 5.6693 6.97914 4.06279C7.05135 5.56408 7.80498 6.85141 10.5043 8.13618C8.4538 10.9898 8.8187 14.6022 10.4588 17.8812C11.2974 18.6786 12.1317 19.48 12.8479 20.3823C13.3909 21.0875 14.1054 21.5309 14.9772 21.7336C15.7484 21.5644 16.4345 21.183 17.0547 20.6422C17.828 19.7378 18.6359 18.896 19.4957 18.1474C20.4473 16.8277 20.985 14.859 20.898 11.9107C20.9036 10.4986 20.477 9.16501 19.3399 7.96073C21.2862 7.18576 22.7968 6.10383 22.8715 4.0108C25.8618 6.49678 27.4125 15.2259 28.3248 26.723L28.7143 27.3987C21.9181 42.3881 6.65861 41.2832 1.08478 26.5644C1.05661 26.4901 0.889655 26.3542 0.857178 26.2813ZM28.0032 26.8822L26.3265 26.8816C21.6204 38.5587 6.66443 37.1452 3.29146 26.4824L1.78842 26.421C5.13062 36.3719 12.9812 37.4545 14.8679 37.4234C17.1279 37.386 24.9737 36.3926 28.0032 26.8822ZM25.8413 26.7653L25.8003 26.6743L23.9241 13.4961L24.872 26.6743L24.5087 26.8302C19.7618 33.3055 11.1276 33.9137 5.99861 26.6743L4.54558 26.6263L5.23367 13.4961L3.53284 26.0375L3.72947 26.6743C5.95503 32.3894 11.032 34.549 14.777 34.5388C18.6072 34.5284 23.4741 32.5206 25.8413 26.7653ZM23.8288 26.6743H22.6322L21.6908 18.5841L21.9246 26.6743H21.6458C17.8469 30.7573 12.4115 31.0901 8.53045 26.6839L7.94737 26.6849L8.27195 18.5841L7.19432 26.6743L6.56 26.6875C8.05846 28.6345 11.5124 31.4047 15.2574 31.3945C19.0876 31.384 22.7729 28.4407 23.8288 26.6743ZM20.81 26.6743L19.1334 26.6737C16.4434 27.8972 13.8627 27.8554 11.3805 26.6708L9.41002 26.6743C10.9085 28.6214 13.2668 29.3208 15.1535 29.2895C17.4135 29.2521 19.7282 28.1029 20.81 26.6743ZM11.6761 25.0046C14.0136 25.9639 16.6004 25.9587 19.1912 24.9732L19.1767 26.0602C16.9372 27.1763 14.2445 27.2256 11.6761 26.2974V25.0046ZM11.8546 23.2277C14.5627 23.3884 16.9889 22.686 19.1257 21.0969L19.0794 24.3192C16.8399 25.4352 14.423 25.4488 11.8546 24.5206V23.2277Z" fill="url(#paint0_linear_78_12)"/>
<path fill-rule="evenodd" clip-rule="evenodd" d="M15.069 3.09258C14.754 1.83233 13.8273 1.02008 12.3352 0.591366C14.0898 0.00511855 15.9083 -0.0221488 17.8015 0.604381C16.1796 1.05337 15.3858 1.86189 15.069 3.09258Z" fill="#E9BC47"/>
<path fill-rule="evenodd" clip-rule="evenodd" d="M8.87425 5.14546C6.41246 1.23346 14.8209 -0.153197 12.9587 4.10505C11.6986 6.13825 13.3254 7.05054 15.0683 7.69218V7.66798C16.8112 7.02642 18.438 6.11412 17.1779 4.08093C15.3157 -0.177389 23.7241 1.20933 21.2624 5.12126C20.7221 5.83757 19.66 6.49412 18.1465 7.03295C17.2881 7.3386 14.1205 7.98821 16.283 8.9933C15.9422 9.02528 15.3918 8.98754 15.0683 8.49951V8.52371C14.7448 9.01167 14.1944 9.0494 13.8536 9.01749C16.0161 8.0124 12.8485 7.36273 11.9901 7.05715C10.4766 6.51825 9.41453 5.8617 8.87425 5.14546Z" fill="#E9BC47"/>
<path fill-rule="evenodd" clip-rule="evenodd" d="M14.1017 5.12571C13.8986 5.04495 13.8124 5.06581 13.7998 4.95032L13.7187 3.93353C13.6812 3.84061 13.5971 3.8327 13.5336 3.93033C13.3582 4.2605 13.2676 4.63317 13.2999 5.06725C13.5246 5.74007 14.5671 5.34131 14.1017 5.12571Z" fill="#E9BC47"/>
<path fill-rule="evenodd" clip-rule="evenodd" d="M16.0947 5.12571C16.2977 5.04495 16.384 5.06581 16.3966 4.95032L16.4777 3.93353C16.5151 3.84061 16.5993 3.8327 16.6627 3.93033C16.8381 4.2605 16.9287 4.63317 16.8964 5.06725C16.6718 5.74007 15.6292 5.34131 16.0947 5.12571Z" fill="#E9BC47"/>
<path fill-rule="evenodd" clip-rule="evenodd" d="M10.475 10.3689C10.1731 10.462 9.95467 10.6093 9.7998 10.7977C10.434 10.6613 11.0981 10.5567 11.715 10.9244L13.6691 12.123C13.7644 12.1537 13.8464 12.1314 13.9158 12.0581C13.9489 11.9451 13.939 11.8375 13.9028 11.7332C13.1615 11.1923 12.4065 10.7366 11.6305 10.4209C11.2185 10.2514 10.8351 10.2439 10.475 10.3689Z" fill="#E9BC47"/>
<path fill-rule="evenodd" clip-rule="evenodd" d="M10.7723 12.6328L10.1296 12.1196L10.8112 12.36C11.8588 11.7941 12.7077 12.3818 13.473 12.9902C13.3483 12.5547 13.0221 12.1696 12.5511 11.8208C11.9089 11.3523 11.1268 11.2281 10.2594 11.3141C9.63253 11.4012 9.44381 11.8692 9.5713 12.4509C9.90679 13.1514 10.4938 13.6447 11.2397 13.8282C11.1077 13.6982 11.0385 13.5729 11.019 13.4514C10.9822 13.2305 11.0017 13.053 11.0775 12.9187C11.1852 12.8229 11.3181 12.8346 11.4605 12.8862C11.327 14.1145 12.6231 14.2018 12.8173 13.2305L13.012 13.3994C13.106 13.5269 13.1475 13.7311 13.129 14.0232L13.6223 14.1336C13.6157 13.8576 13.5793 13.5931 13.46 13.3605C13.2485 13.0124 12.9947 12.6969 12.5576 12.5225C11.8691 12.286 11.3996 12.3126 10.7723 12.6328ZM12.3693 12.8474C12.5217 12.8474 12.6453 12.9621 12.6453 13.1035C12.6453 13.245 12.5217 13.3597 12.3693 13.3597C12.2169 13.3597 12.0933 13.245 12.0933 13.1035C12.0933 12.9621 12.2169 12.8474 12.3693 12.8474Z" fill="#E9BC47"/>
<path fill-rule="evenodd" clip-rule="evenodd" d="M14.5875 18.5842C14.0837 18.4938 13.5743 18.51 13.0619 18.5842C13.3191 17.7922 14.3391 17.2891 15.0694 17.8304V17.8287C15.7997 17.2875 16.8197 17.7906 17.0769 18.5826C16.5645 18.5083 16.0551 18.4922 15.5514 18.5826C15.392 18.6788 15.2466 18.7291 15.0694 18.7529C14.8922 18.7291 14.73 18.7033 14.5875 18.5842Z" fill="#E9BC47"/>
<path fill-rule="evenodd" clip-rule="evenodd" d="M15.0694 19.8735C14.1255 19.8831 13.4757 19.5065 13.0858 18.7885C13.5623 18.7329 14.0322 18.7199 14.4914 18.7769C14.8767 18.915 15.2535 18.9152 15.6209 18.7675C16.0885 18.7097 16.5503 18.6925 17.0005 18.7561C16.5963 19.5368 15.9411 19.8897 15.0694 19.8735Z" fill="#E9BC47"/>
<path fill-rule="evenodd" clip-rule="evenodd" d="M14.6765 16.6841C14.6375 16.4557 14.1636 16.5975 13.9072 16.5541C14.0458 16.3705 14.2294 16.2645 14.524 16.3495C14.6821 16.4014 14.7522 16.5023 14.6765 16.6841Z" fill="#E9BC47"/>
<path fill-rule="evenodd" clip-rule="evenodd" d="M15.3914 16.6841C15.4303 16.4557 15.9043 16.5975 16.1607 16.5541C16.0222 16.3705 15.8385 16.2645 15.544 16.3495C15.3858 16.4014 15.3158 16.5023 15.3914 16.6841Z" fill="#E9BC47"/>
<path fill-rule="evenodd" clip-rule="evenodd" d="M19.6357 10.2521C19.9376 10.3453 20.1561 10.4925 20.3109 10.6809C19.6768 10.5446 19.0126 10.4399 18.3958 10.8076L16.4417 12.0062C16.3464 12.0369 16.2643 12.0145 16.195 11.9412C16.1619 11.8282 16.1718 11.7207 16.2079 11.6164C16.9492 11.0754 17.7042 10.6198 18.4802 10.3041C18.8922 10.1346 19.2756 10.127 19.6357 10.2521Z" fill="#E9BC47"/>
<path fill-rule="evenodd" clip-rule="evenodd" d="M19.3372 12.5159L19.9799 12.0026L19.2983 12.243C18.2507 11.6772 17.4018 12.2649 16.6365 12.8732C16.7612 12.4378 17.0874 12.0527 17.5583 11.7038C18.2006 11.2353 18.9827 11.1111 19.85 11.1971C20.477 11.2842 20.6657 11.7522 20.5382 12.334C20.2027 13.0344 19.6157 13.5277 18.8698 13.7113C19.0018 13.5812 19.071 13.4559 19.0905 13.3344C19.1272 13.1136 19.1078 12.9361 19.032 12.8017C18.9243 12.706 18.7914 12.7177 18.649 12.7692C18.7825 13.9976 17.4864 14.0848 17.2922 13.1136L17.0975 13.2825C17.0035 13.41 16.962 13.6141 16.9805 13.9062L16.4872 14.0166C16.4938 13.7406 16.5302 13.4762 16.6495 13.2435C16.861 12.8954 17.1148 12.5799 17.5519 12.4055C18.2404 12.169 18.7098 12.1956 19.3372 12.5159ZM17.7402 12.7305C17.5878 12.7305 17.4642 12.8451 17.4642 12.9865C17.4642 13.128 17.5878 13.2427 17.7402 13.2427C17.8926 13.2427 18.0162 13.128 18.0162 12.9865C18.0162 12.8451 17.8926 12.7305 17.7402 12.7305Z" fill="#E9BC47"/>
<defs>
<linearGradient id="paint0_linear_78_12" x1="28.7143" y1="38.134" x2="0.833233" y2="4.03026" gradientUnits="userSpaceOnUse">
<stop stop-color="#CA9000"/>
<stop offset="0.0196078" stop-color="#BB7F00"/>
<stop offset="0.0392157" stop-color="#AC6E00"/>
<stop offset="0.0509804" stop-color="#915900"/>
<stop offset="0.121569" stop-color="#B3872C"/>
<stop offset="0.25098" stop-color="#D6B659"/>
<stop offset="0.501961" stop-color="#FFF6AC"/>
<stop offset="0.678431" stop-color="#EBD683"/>
<stop offset="0.74902" stop-color="#D6B659"/>
<stop offset="0.870588" stop-color="#B4882D"/>
<stop offset="0.941176" stop-color="#915900"/>
<stop offset="0.94902" stop-color="#AC6E00"/>
<stop offset="1" stop-color="#CA9000"/>
</linearGradient>
</defs>
</svg>
