<svg width="37" height="37" viewBox="0 0 37 37" fill="none" xmlns="http://www.w3.org/2000/svg">
<g clip-path="url(#clip0_40_162)">
<path fill-rule="evenodd" clip-rule="evenodd" d="M18.3214 0L12.4919 11.6574L0 12.4919L9.16071 21.6526L5.82955 34.9773L18.3214 28.3149L30.815 34.9773L27.4821 21.6526L36.6429 12.4919L24.151 11.6574L18.3214 0ZM13.5229 22.7419L14.1408 20.2735L12.3403 18.473L10.1884 16.3211L12.7917 16.1462L15.3617 15.973L16.5143 13.6695L18.3214 10.0551L20.1286 13.6695L21.2812 15.973L23.8512 16.1462L26.4561 16.3211L24.3025 18.473L22.502 20.2735L23.12 22.7419L23.9944 26.2446L20.4384 24.3458L18.3214 23.2166L16.2045 24.3458L12.6484 26.2446L13.5229 22.7419Z" fill="white"/>
</g>
<defs>
<clipPath id="clip0_40_162">
<rect width="36.6429" height="36.6429" fill="white"/>
</clipPath>
</defs>
</svg>
