<svg width="37" height="37" viewBox="0 0 37 37" fill="none" xmlns="http://www.w3.org/2000/svg">
<g clip-path="url(#clip0_40_178)">
<path fill-rule="evenodd" clip-rule="evenodd" d="M0 31.2227H36.6333V4.58032H0V31.2227ZM4.99545 26.2273H31.6379V9.57577H4.99545V26.2273Z" fill="white"/>
<path fill-rule="evenodd" clip-rule="evenodd" d="M4.99484 13.7409H9.1601V9.57568H4.99484V13.7409Z" fill="white"/>
<path fill-rule="evenodd" clip-rule="evenodd" d="M27.4821 26.2273H31.6379V22.0715H27.4821V26.2273Z" fill="white"/>
<path fill-rule="evenodd" clip-rule="evenodd" d="M18.3158 20.3993C16.9387 20.3993 15.8181 19.2786 15.8181 17.9015C15.8181 16.5245 16.9387 15.4038 18.3158 15.4038C19.6929 15.4038 20.8135 16.5245 20.8135 17.9015C20.8135 19.2786 19.6929 20.3993 18.3158 20.3993Z" fill="white"/>
<path fill-rule="evenodd" clip-rule="evenodd" d="M18.3161 13.6694C15.9786 13.6694 14.084 15.564 14.084 17.9015C14.084 20.239 15.9786 22.1336 18.3161 22.1336C20.6536 22.1336 22.5481 20.239 22.5481 17.9015C22.5481 15.564 20.6536 13.6694 18.3161 13.6694Z" fill="white"/>
</g>
<defs>
<clipPath id="clip0_40_178">
<rect width="36.6429" height="36.6429" fill="white"/>
</clipPath>
</defs>
</svg>
