<svg width="33" height="29" viewBox="0 0 33 29" fill="none" xmlns="http://www.w3.org/2000/svg">
<circle cx="12" cy="17" r="2" fill="#BABABA"/>
<circle cx="21" cy="17" r="2" fill="#BABABA"/>
<path d="M18.9835 2.07917L18.3659 2.73039L18.9835 2.07917C18.3171 1.44722 17.4229 1.1 16.5 1.1C15.5771 1.1 14.6829 1.44722 14.0165 2.07917L14.6358 2.73223L14.0165 2.07917C13.3485 2.71266 12.9636 3.58237 12.9636 4.5C12.9636 5.57827 13.4824 6.53323 14.2818 7.14847V7.35H13.8636C11.1927 7.35 8.62214 8.3557 6.71969 10.1598C5.03882 11.7537 4.00073 13.8571 3.78045 16.1H3.31818C2.74485 16.1 2.18601 16.3155 1.7668 16.7131C1.34597 17.1121 1.1 17.6639 1.1 18.25V22C1.1 22.5861 1.34597 23.1379 1.7668 23.5369C2.18602 23.9345 2.74485 24.15 3.31818 24.15H3.73636V24.5C3.73636 25.4176 4.12121 26.2873 4.78925 26.9208C5.45567 27.5528 6.34979 27.9 7.27273 27.9H25.7273C26.6502 27.9 27.5443 27.5528 28.2107 26.9208C28.8788 26.2873 29.2636 25.4176 29.2636 24.5V24.15H29.6818C30.2551 24.15 30.814 23.9345 31.2332 23.5369C31.654 23.1379 31.9 22.5861 31.9 22V18.25C31.9 17.6639 31.654 17.1121 31.2332 16.7131C30.814 16.3155 30.2551 16.1 29.6818 16.1H29.2196C28.9993 13.8571 27.9612 11.7537 26.2803 10.1598C24.3779 8.3557 21.8073 7.35 19.1364 7.35H18.7182V7.14847C19.5176 6.53323 20.0364 5.57827 20.0364 4.5C20.0364 3.58237 19.6515 2.71266 18.9835 2.07917Z" stroke="#BABABA" stroke-width="1.8"/>
</svg>
