<svg width="14" height="27" viewBox="0 0 14 27" fill="none" xmlns="http://www.w3.org/2000/svg">
<path d="M11.8125 3.375V20.25C11.8125 23.0462 9.54617 25.3125 6.75 25.3125C3.95383 25.3125 1.6875 23.0462 1.6875 20.25V5.0625C1.6875 3.19865 3.19865 1.6875 5.0625 1.6875C6.92635 1.6875 8.4375 3.19865 8.4375 5.0625V20.25C8.4375 21.1824 7.6815 21.9375 6.75 21.9375C5.81765 21.9375 5.0625 21.1824 5.0625 20.25V6.75H3.375V20.25C3.375 22.1139 4.88615 23.625 6.75 23.625C8.61385 23.625 10.125 22.1139 10.125 20.25V5.0625C10.125 2.26633 7.85867 0 5.0625 0C2.26633 0 0 2.26633 0 5.0625V21.0938C0.415977 24.4224 3.30835 27 6.75 27C10.1916 27 13.084 24.4224 13.5 21.0938V3.375H11.8125Z" fill="#BABABA"/>
</svg>
